<svg class="bottom-0 left-0 max-sm:absolute max-sm:right-0 max-sm:top-[380px] max-sm:h-[750px] sm:w-auto md:w-screen lg:absolute lg:h-[950px] lg:w-auto min-[1440px]:left-[calc((100vw-1280px)/2-5rem)] max-w-[1086px] overflow-visible" fill="none" viewBox="0 0 891 959" xmlns="http://www.w3.org/2000/svg"><path d="M207.257 459.456H421.653V709.584C421.653 768.788 373.659 816.782 314.455 816.782V816.782C255.251 816.782 207.257 768.788 207.257 709.584V459.456Z" stroke="#D4FF00"></path><path d="M207.257 173.595H278.722C357.661 173.595 421.653 237.587 421.653 316.525V316.525C421.653 395.464 357.661 459.456 278.722 459.456H207.257V173.595Z" stroke="#D4FF00"></path><path d="M-293 173.595H64.3264C143.265 173.595 207.257 237.587 207.257 316.525V316.525C207.257 395.464 143.265 459.456 64.3265 459.456H-293V173.595Z" stroke="#D4FF00"></path><path d="M64.3264 1055L64.3264 530.921C64.3264 491.452 96.3225 459.456 135.792 459.456V459.456C175.261 459.456 207.257 491.452 207.257 530.921L207.257 1055L64.3264 1055Z" stroke="#D4FF00"></path></svg>